<?xml version="1.0" standalone="no"?>
<!DOCTYPE svg PUBLIC "-//W3C//DTD SVG 20010904//EN"
 "http://www.w3.org/TR/2001/REC-SVG-20010904/DTD/svg10.dtd">
<svg version="1.0" xmlns="http://www.w3.org/2000/svg"
 width="500.000000pt" height="500.000000pt" viewBox="0 0 500.000000 500.000000"
 preserveAspectRatio="xMidYMid meet">

<g transform="translate(0.000000,500.000000) scale(0.100000,-0.100000)"
fill="#000000" stroke="none">
<path d="M2535 3757 c-103 -34 -147 -97 -153 -221 -2 -46 1 -100 8 -126 16
-60 80 -124 140 -140 49 -13 148 -9 193 9 26 10 27 14 27 76 l0 65 -35 0 c-33
0 -35 -2 -35 -35 0 -29 -5 -37 -27 -46 -41 -16 -107 -2 -137 28 -69 68 -58
258 17 308 17 11 42 15 79 13 l53 -3 3 -38 c3 -37 4 -38 40 -35 l37 3 0 60 c0
55 -2 61 -26 72 -41 20 -138 25 -184 10z"/>
<path d="M3862 3685 c-12 -19 -33 -40 -47 -47 -35 -16 -35 -58 0 -58 l25 0 0
-129 c0 -123 1 -131 24 -158 22 -25 30 -28 90 -28 72 0 90 10 81 47 -6 21 -11
24 -53 24 l-47 -1 -3 123 -3 122 46 0 c43 0 45 1 45 30 0 29 -2 30 -44 30 -44
0 -45 0 -48 38 -4 53 -37 57 -66 7z"/>
<path d="M2989 3627 c-62 -33 -92 -94 -91 -187 0 -49 6 -82 19 -108 35 -67
125 -92 191 -52 26 16 32 17 32 5 0 -12 14 -15 60 -15 l60 0 0 30 c0 23 -4 30
-20 30 -19 0 -20 7 -20 149 l0 149 -44 11 c-72 18 -138 14 -187 -12z m119 -43
c21 -6 22 -11 22 -114 0 -116 -7 -134 -55 -146 -55 -14 -89 33 -89 121 1 106
47 159 122 139z"/>
<path d="M3555 3638 c-11 -6 -28 -20 -37 -32 l-18 -21 0 28 c0 26 -1 27 -60
27 -60 0 -60 0 -60 -29 0 -23 5 -30 23 -33 21 -3 22 -7 25 -121 l3 -117 -26
-10 c-18 -7 -25 -17 -25 -35 l0 -25 100 0 100 0 0 30 c0 28 -3 30 -35 30 l-35
0 0 84 c0 45 5 97 10 113 19 54 90 67 90 16 0 -21 4 -24 33 -21 31 3 32 5 35
53 3 38 -1 52 -14 62 -22 16 -82 16 -109 1z"/>
<path d="M1670 3496 c0 -32 2 -34 46 -40 26 -3 84 -6 129 -6 95 0 136 -14 183
-62 38 -40 27 -1 207 -766 67 -288 125 -526 128 -529 4 -3 86 -9 184 -14 98
-4 275 -13 393 -19 556 -27 873 -40 877 -36 10 10 325 1018 319 1023 -5 6
-1761 92 -1892 93 l-60 0 -19 78 c-32 138 -46 173 -83 214 -49 54 -103 77
-199 83 -43 3 -108 8 -145 10 l-68 5 0 -34z m835 -436 c127 -6 258 -13 293
-16 l63 -6 -45 -30 c-53 -35 -127 -114 -161 -172 -22 -39 -46 -107 -59 -168
l-6 -27 -143 6 c-78 3 -144 7 -146 9 -1 1 -23 87 -47 191 -25 103 -47 196 -50
206 -7 21 -11 21 301 7z m701 -41 c125 -23 256 -124 313 -242 134 -277 -36
-604 -337 -649 -206 -30 -396 72 -486 262 -29 61 -31 72 -31 185 0 114 2 123
32 188 92 193 295 295 509 256z m574 -20 c146 -6 266 -13 268 -14 5 -4 -118
-388 -128 -398 -4 -5 -69 -5 -144 -1 -128 6 -137 8 -140 28 -20 111 -28 142
-53 193 -17 37 -55 86 -104 136 l-77 78 56 -5 c31 -3 176 -11 322 -17z m-1244
-425 l51 -6 6 -62 c11 -114 79 -242 174 -326 l48 -42 -195 7 c-107 4 -198 10
-201 13 -6 6 -99 397 -99 415 0 9 144 9 216 1z m1360 -67 c3 -3 -124 -408
-129 -413 -2 -2 -84 1 -183 6 -98 5 -190 10 -203 10 -22 0 -19 4 20 28 61 40
149 137 181 202 14 31 32 84 39 119 l14 64 129 -7 c71 -3 131 -8 132 -9z"/>
<path d="M2870 2817 c0 -19 157 -500 190 -582 11 -29 13 -25 41 90 16 66 31
130 34 143 5 21 10 18 62 -38 l56 -61 26 25 25 26 -54 55 c-29 30 -52 57 -49
60 3 2 65 13 138 24 73 11 135 21 137 23 6 7 -566 258 -587 258 -13 0 -19 -7
-19 -23z m245 -144 l130 -58 -76 -9 -77 -9 -12 -61 c-7 -34 -16 -64 -19 -68
-4 -4 -28 56 -53 133 -26 77 -41 138 -35 136 7 -3 71 -31 142 -64z"/>
<path d="M1059 3413 l-276 -3 -7 -38 c-3 -20 -6 -52 -6 -69 l0 -33 54 0 c90 0
86 26 86 -492 0 -513 0 -512 -74 -548 -23 -11 -49 -20 -58 -20 -16 0 -28 -45
-28 -107 l0 -32 68 7 c70 7 184 8 482 1 163 -4 180 -2 245 19 105 35 179 78
255 149 151 140 230 332 230 557 -1 357 -233 590 -605 608 -49 2 -214 3 -366
1z m402 -202 c154 -59 226 -170 250 -380 18 -164 -13 -348 -76 -443 -34 -51
-72 -85 -130 -116 -46 -25 -60 -27 -162 -27 -110 0 -113 1 -140 28 -26 26 -28
34 -32 125 -5 133 19 791 31 821 8 23 10 24 106 19 65 -4 116 -13 153 -27z"/>
<path d="M2641 1958 c-94 -16 -158 -86 -168 -183 -8 -72 16 -134 68 -178 93
-80 218 -73 296 16 64 73 71 183 16 260 -52 72 -124 101 -212 85z m116 -88
c116 -71 59 -260 -79 -260 -70 0 -138 71 -138 144 0 46 31 100 68 121 39 21
111 19 149 -5z"/>
<path d="M1327 1943 c-12 -11 -8 -23 8 -23 12 0 15 -19 15 -115 0 -94 -3 -117
-15 -121 -8 -4 -15 -12 -15 -20 0 -11 23 -14 115 -14 l115 0 0 29 c0 16 3 36
6 45 11 28 -32 19 -44 -10 -11 -22 -17 -25 -55 -22 -42 3 -42 3 -45 46 l-3 42
49 0 c46 0 62 10 62 36 0 2 -22 4 -50 4 l-50 0 0 45 c0 45 0 45 35 45 29 0 37
-5 45 -26 16 -41 44 -28 48 24 l3 42 -109 0 c-60 0 -112 -3 -115 -7z"/>
<path d="M1773 1930 c-68 -41 -53 -105 37 -155 62 -35 78 -69 39 -84 -35 -12
-61 -1 -73 31 -16 43 -40 32 -44 -19 -3 -39 -1 -43 25 -49 15 -3 35 -8 43 -10
30 -7 95 16 118 41 12 14 22 39 22 55 0 30 -31 59 -109 102 -40 22 -42 55 -4
64 32 8 57 -6 61 -35 6 -41 38 -19 44 31 5 44 -2 48 -75 48 -34 0 -63 -7 -84
-20z"/>
<path d="M2120 1936 c0 -8 7 -16 15 -20 12 -4 15 -27 15 -115 0 -100 -2 -111
-20 -121 -37 -20 -20 -30 50 -30 56 0 70 3 70 15 0 8 -9 15 -20 15 -19 0 -20
7 -20 104 0 113 4 136 26 136 8 0 14 7 14 15 0 12 -14 15 -65 15 -49 0 -65 -3
-65 -14z"/>
<path d="M3384 1906 c-112 -52 -153 -173 -98 -285 61 -122 220 -156 320 -69
50 44 74 97 74 160 -1 100 -64 184 -156 207 -62 16 -83 14 -140 -13z m128 -56
c20 -6 50 -26 67 -46 59 -67 33 -176 -52 -218 -98 -48 -214 46 -193 157 9 47
49 94 89 106 43 12 47 12 89 1z"/>
</g>
</svg>
